<?xml version="1.0" encoding="UTF-8"?>
<svg id="a" data-name="Layer 1" xmlns="http://www.w3.org/2000/svg" xmlns:xlink="http://www.w3.org/1999/xlink" viewBox="0 0 300.99 600">
  <defs>
    <style>
      .g {
        fill: #51d8d9;
      }

      .g, .h, .i, .j, .k, .l, .m, .n, .o, .p {
        stroke-width: 0px;
      }

      .h {
        fill: url(#c);
      }

      .i {
        fill: url(#e);
      }

      .j {
        fill: url(#b);
      }

      .k {
        fill: #92d75c;
      }

      .l {
        fill: url(#d);
      }

      .m {
        fill: #64cfb1;
      }

      .n {
        fill: #000;
        opacity: .09;
      }

      .o {
        fill: url(#f);
      }

      .p {
        fill: #7fd87f;
      }
    </style>
    <linearGradient id="b" x1="88.81" y1="225.31" x2="58.48" y2="558.93" gradientUnits="userSpaceOnUse">
      <stop offset="0" stop-color="#1834a0"/>
      <stop offset=".5" stop-color="#1c8ec0"/>
      <stop offset="1" stop-color="#14799e"/>
    </linearGradient>
    <linearGradient id="c" x1="89.76" y1="572.94" x2="297.27" y2="469.18" gradientUnits="userSpaceOnUse">
      <stop offset="0" stop-color="#227752"/>
      <stop offset=".5" stop-color="#75cb71"/>
      <stop offset="1" stop-color="#a4d53d"/>
    </linearGradient>
    <linearGradient id="d" x1="8.12" y1="225.02" x2="217.32" y2="140.37" gradientUnits="userSpaceOnUse">
      <stop offset="0" stop-color="#1834a0"/>
      <stop offset="1" stop-color="#2ed0f6"/>
    </linearGradient>
    <linearGradient id="e" x1="241.28" y1="147.61" x2="243.7" y2="498.28" gradientUnits="userSpaceOnUse">
      <stop offset="0" stop-color="#1c64b0"/>
      <stop offset=".5" stop-color="#6ccfa0"/>
      <stop offset="1" stop-color="#8eca47"/>
    </linearGradient>
    <linearGradient id="f" x1="129.41" y1="96" x2="188.54" y2="43.55" xlink:href="#d"/>
  </defs>
  <path class="g" d="M175.54,241.17c15.9,0,31.81,0,47.71,0,4.09,0,4.79.88,4.04,4.8-.65,3.42-1.26,6.84-1.84,10.27-.4,2.39-1.58,3.51-4.18,3.5-32.32-.06-64.65-.04-96.97,0-2.76,0-3.72-1.04-3.25-3.78.66-3.82,1.28-7.66,1.57-11.51.23-3.09,1.95-3.34,4.43-3.33,16.16.07,32.32.03,48.49.04Z"/>
  <path class="k" d="M129.26,390.61q-1.79,8.78-10.38,7.26c.25-2.34.5-4.72.78-7.33-6.9-.97-12.96-3.52-18.14-8.83,2.32-3.03,4.57-5.96,7.07-9.23,1.45,1.14,2.77,2.09,3.99,3.15,4.75,4.09,10.37,5.07,16.36,4.47,3.92-.39,6.85-2.95,7.14-6.03.36-3.8-2.48-5.21-5.24-6.32-3.71-1.49-7.63-2.45-11.35-3.91-9.2-3.63-12.83-8.67-12.23-16.65.54-7.22,6.13-13.09,14.5-15.23,1.24-.32,2.49-.61,3.93-.97.42-2.23.85-4.49,1.33-7.01h9.34c-.14,2.56-.26,4.82-.36,6.57,5.4,2.33,10.43,4.51,16.2,7-2.88,3.81-5.16,6.84-7.77,10.29-4.94-4.34-10.36-6.82-16.78-6.04-1.52.18-3.34.27-4.41,1.15-1.47,1.21-3.15,3.09-3.26,4.78-.09,1.41,1.63,3.55,3.1,4.32,2.82,1.48,6,2.3,9.08,3.25,5.5,1.71,10.95,3.66,14.42,8.54,6.32,8.89.88,22.2-10.25,25.38-2.22.63-4.54.91-7.07,1.41Z"/>
  <path class="g" d="M167.27,279.94c-14.63,0-29.26-.03-43.88.03-2.95.01-5.17-.59-5.34-4.06-.15-3.11,1.85-5.26,5.32-5.26,29.9-.04,59.81-.01,89.71-.05,2.75,0,4.56,1.1,4.94,3.82.34,2.41-2.37,5.32-4.93,5.56-.77.07-1.55,0-2.33,0-14.5,0-29,0-43.49,0v-.02Z"/>
  <path class="g" d="M154.58,302.99c-11.37,0-22.75,0-34.12,0-4.39,0-6.18-1.29-6.19-4.49-.01-3.28,2.13-5.1,6.36-5.11,20.03-.04,40.07-.03,60.1-.03,3.49,0,6.98,0,10.47,0,2.93,0,5.12.98,5.26,4.33.12,2.98-2.14,5.2-5.43,5.21-12.15.04-24.3.02-36.45.02v.08Z"/>
  <path class="m" d="M134.81,441.49c11.12,0,22.24.03,33.37-.02,3.01-.01,5.56.47,5.76,4.13.17,3.03-2.26,5.21-5.88,5.22-22.76.05-45.52.02-68.28.11-3.11.01-5.05-1.14-5.41-4.22-.32-2.72,2.3-5.18,5.54-5.19,11.64-.06,23.28-.02,34.92-.03Z"/>
  <path class="p" d="M188.9,364.49c6.67-6.53,12.93-12.66,19.18-18.8.83-.81,1.57-1.73,2.45-2.48,2.67-2.27,5.55-2.27,7.58.07,2.22,2.57,1.52,5-.68,7.18-5.78,5.73-11.59,11.42-17.37,17.14-2.2,2.18-4.36,4.41-6.56,6.59-2.97,2.95-6.94,2.93-9.89-.12-3.86-3.98-7.58-8.12-11.52-12.02-2.65-2.63-1.77-4.87.4-6.98,2.18-2.11,4.52-2.92,7.03-.22,2.89,3.11,5.92,6.09,9.38,9.63Z"/>
  <path class="k" d="M183.97,412.68c7.58-7.3,14.23-13.79,21.01-20.15,1.25-1.18,3.07-2.61,4.51-2.49,1.59.13,3.75,1.63,4.34,3.08.57,1.39.04,4.07-1.04,5.16-8.27,8.37-16.75,16.52-25.25,24.65-2.26,2.16-6.14,1.95-8.4-.36-3.79-3.88-7.43-7.9-11.14-11.86-2.16-2.31-1.53-4.51.41-6.48,2.07-2.1,4.49-3.47,7.06-.87,2.89,2.92,5.56,6.08,8.51,9.34Z"/>
  <path class="p" d="M125.76,417.32c7.36,0,14.71.07,22.07-.04,3.09-.05,5.14,1,5.19,4.25.05,3.27-1.96,5.13-5.08,5.15-15.23.1-30.46.07-45.69.03-3.07,0-4.36-2.05-4.39-4.81-.03-2.97,1.75-4.48,4.66-4.5,7.74-.04,15.49-.01,23.23-.01,0-.03,0-.05,0-.08Z"/>
  <path class="j" d="M94.58,570.15c-7.33,5.81-16.19,10.49-25.55,11.76-6.88.93-14.17-.16-20.01-3.91-7.07-4.53-11.39-12.48-13.31-20.65-2.89-12.33-1.86-26.07-1.04-38.6.9-13.73,2.67-27.39,4.2-41.06,2.41-21.54,5.57-43.01,8.86-64.43,2.31-15.06,4.71-30.12,7.05-45.18,5.51-35.5,9.74-71.17,14.05-106.82.61-5.06,1.11-10.63-1.76-14.85-6.55-9.62-26.26-8.91-36.15-7.79-1.28.15-2.64-.29-3.98-.79,24.48-7.72,49.76-11.05,75.77-15.3-8.15,48.61-16.13,97.26-23.52,145.99-1.65,10.9-3.27,21.8-4.82,32.71-3.95,27.69-7.89,55.59-7.89,83.63.03,7.22.69,14.52,2.98,21.4.77,2.33,1.7,4.6,2.81,6.79,2.94,5.83,7.19,11.07,12.63,14.68,5.92,3.93,12.95,5.73,19.95,6.45,3.57.36,7.14.37,10.72.41,1.33.01,4.46-.33,5.27,1.12,2.31,4.21-7.96,14.63-10.29,17.76-4.45,5.97-9.84,11.83-15.96,16.68Z"/>
  <path class="h" d="M290,478.9c.81,11.95-9.43,26.69-17.15,35.02-16.69,18.03-37.08,26.11-59.75,34.29-42.37,15.3-86.13,30.84-131.04,36.38-.88.11-1.76,0-2.49-.44,9.99-5.12,19.8-8.68,28.71-15.98,10.77-8.82,18.31-20.43,24.65-32.68,6.14-11.87,10.07-25.42,21.28-33.76,8.84-6.58,20.31-8.37,31.31-9.02,12.6-.75,25.24-.29,37.87-.6,11.33-.28,22.68-1.2,33.83-3.26,5.7-1.05,11.35-2.4,16.88-4.12,5.18-1.61,10.68-4.94,15.89-5.82Z"/>
  <path class="l" d="M248.58,129.81c-10.99,2.7-21.24,8.32-29.42,16.13-13.16,12.56-20.51,29.98-34.05,42.19-15.37,13.86-38.27,16.12-57.96,18.69-21.23,2.77-42.5,5.57-63.42,10.23-10.52,2.34-20.95,5.16-31.14,8.67-3.3,1.14-20.76,10.79-21.46,3.04-.97-10.8,2.07-21.77,7.7-31.04,15.09-24.82,44.08-34.13,70.63-40.99,52.14-13.49,105.45-22.5,159.13-26.91Z"/>
  <path class="i" d="M284.84,473.32c-6.32,4.9-17.53,5.15-25.2,6.44-9.12,1.54-18.36,2.38-27.61,2.51-4.86.07-10.3-.3-13.6-3.86-2.98-3.21-3.28-8.02-3.07-12.39.37-7.89,1.85-15.69,3.33-23.45,5.06-26.61,10.36-53.19,15.02-79.88,2.33-13.33,4.42-26.71,6.29-40.11,1.82-13.08,4.94-27.09,4.94-40.3,1.7-16.03,3.1-32.1,4.21-48.18.84-12.16-1.82-18.99-14.73-20.96-4.32-.66-8.69-1.06-13.02-1.57-1.52-.17-3.04-.36-4.56-.54-1.34-.16-2.66-.32-3.99-.48-10.5-2.34-14.65-8.87-11.5-19.36,1.47-4.84,4.35-9.24,6.6-13.86,9.02-16.77,19.2-32.58,36.22-42.5,5.96-3.48,12.64-4.23,19.12-2.53,4.4,1.16,8.04,4.31,9.08,9.36.56,2.33,1.12,4.67,1.69,6.99,0,.37.01.75.01,1.12.07,4.81.13,9.63.21,14.44-.32,4.65-.63,9.3-.95,13.95-.57,6.98-1.14,13.96-1.71,20.94-2.62,32.16-7.23,64.28-11.24,96.28,0,13.08-3.39,27.03-5.01,40.02-1.75,14.01-3.51,28.01-5.26,42.02-3.17,25.33-7.65,52.24-.94,77.37.77,2.89,1.73,5.81,3.62,8.13,1.65,2.03,3.91,3.48,6.22,4.7,8.49,4.48,16.67,4.69,25.84,5.69Z"/>
  <path class="n" d="M195.67,530.8c2.88-1.03,5.7-2.16,8.47-3.39,18.38-8.19,36.32-17.39,53.69-27.54,4.88-2.85,9.71-5.78,14.49-8.77s9.18-6.6,14.14-8.88c2.58-1.19,1.52,3.05,1.29,4.2-.98,5.04-1.78,9.93-4.54,14.36-7.08,11.37-16.91,20.89-27.94,28.41-10.54,7.19-22.16,12.67-34.02,17.3-11.99,4.68-24.3,8.48-36.61,12.23-6.26,1.91-12.53,3.8-18.76,5.8-28.3,9.11-57.2,16.87-86.82,20.14,8.58-.95,19.05-8.59,25.74-13.61,8.12-6.1,14.22-13.83,20.93-21.36.71-1.19,1.41-2.37,2.12-3.56.21-.42.41-.85.62-1.27,21.95-3.84,45.89-6.41,67.18-14.05Z"/>
  <path class="n" d="M274.06,149.54c-3.6-5.89-8.05-12.36-14.87-13.37-3.1-.46-6.26.33-9.16,1.51-8.17,3.33-14.76,9.73-19.99,16.83-5.23,7.1-9.28,14.99-13.82,22.56-3.39,5.66-7.16,11.39-8.01,17.93-.76,5.84,1.53,11.62,6.36,15.02-5.98,2.45-13.28-5.2-13.95-10.84-.44-3.75.79-7.48,2.17-11,6.58-16.82,16.86-32.18,29.9-44.67,4.29-4.11,8.97-7.97,14.46-10.25,5.91-2.45,14.02-3.02,19.67.53,5.26,3.31,6.1,10.17,7.22,15.74Z"/>
  <circle class="o" cx="164.61" cy="64.78" r="49.42"/>
</svg>